<?xml version="1.0" encoding="UTF-8"?>
<svg version="1.1" xmlns="http://www.w3.org/2000/svg" width="800" height="800">
<path d="M0 0 C264 0 528 0 800 0 C800 264 800 528 800 800 C536 800 272 800 0 800 C0 536 0 272 0 0 Z " fill="#FEF6E7" transform="translate(0,0)"/>
<path d="M0 0 C30.44520033 23.8956822 46.06935227 61.28948654 50.96166992 98.99316406 C51.96379972 107.53745236 52.25234428 116.05656954 52.29980469 124.65576172 C52.31370239 126.21967651 52.31370239 126.21967651 52.32788086 127.81518555 C52.30241247 134.02497886 51.62411458 139.52089619 50.04980469 145.53076172 C50.57123047 145.07564209 51.09265625 144.62052246 51.62988281 144.15161133 C52.98818361 142.96631178 54.34697641 141.78157597 55.70605469 140.59716797 C57.24001554 139.24472581 58.76149514 137.87796114 60.26855469 136.49560547 C74.24847302 123.72170122 84.32575052 121.68192598 102.99365234 122.34423828 C125.81483414 123.73706324 146.65135796 137.40291488 162.04980469 153.53076172 C176.05422585 169.8103491 185.94475358 189.85225907 187.04980469 211.53076172 C187.11425781 212.75150391 187.17871094 213.97224609 187.24511719 215.22998047 C188.12647111 240.15760735 179.03089943 262.07991126 162.67480469 280.65576172 C161.14184787 282.28898078 159.59991495 283.9138142 158.04980469 285.53076172 C156.83744141 286.85527344 156.83744141 286.85527344 155.60058594 288.20654297 C136.80845824 308.06608599 105.67528184 324.81147089 78.00683594 325.83154297 C60.11592497 326.03611858 45.19052923 323.62457808 30.04980469 313.53076172 C30.50746216 314.64257812 30.50746216 314.64257812 30.97436523 315.77685547 C34.60847574 324.87570482 37.40221811 334.05518068 39.86230469 343.53076172 C40.16170959 344.68229233 40.16170959 344.68229233 40.46716309 345.85708618 C43.62513084 358.19448073 45.61216232 369.765847 44.04980469 382.53076172 C43.96085937 383.26262695 43.87191406 383.99449219 43.78027344 384.74853516 C41.44031235 402.16564548 35.30952383 417.04905809 24.04980469 430.53076172 C23.540625 431.18560547 23.03144531 431.84044922 22.50683594 432.51513672 C8.27901015 450.08035374 -17.47305176 463.06231023 -39.72802734 465.8828125 C-62.14349747 467.62539996 -82.77684593 459.81382517 -99.95019531 445.53076172 C-106.3396421 440.03629064 -110.83550184 433.86130785 -114.95019531 426.53076172 C-115.46066406 425.70833984 -115.97113281 424.88591797 -116.49707031 424.03857422 C-122.61060752 412.46406838 -120.7699067 397.03577258 -119.43847656 384.37451172 C-118.73939859 377.24944215 -118.76414973 370.11989051 -118.76489258 362.96704102 C-118.76267692 360.57339423 -118.74437145 358.18018853 -118.72558594 355.78662109 C-118.7226563 354.25472161 -118.72066863 352.72281997 -118.71972656 351.19091797 C-118.70894829 350.12527367 -118.70894829 350.12527367 -118.69795227 349.0381012 C-118.71493818 345.36711604 -118.92860088 342.6510379 -120.95019531 339.53076172 C-123.79911228 339.44093383 -123.79911228 339.44093383 -126.95019531 340.53076172 C-128.90236308 342.7952148 -130.18041702 345.39775286 -131.57519531 348.03076172 C-136.15616785 355.882993 -141.03031008 360.91235055 -148.95019531 365.53076172 C-149.67577637 365.96195313 -150.40135742 366.39314453 -151.14892578 366.83740234 C-178.80961392 382.99210279 -214.00483023 393.8661773 -246.20019531 387.28076172 C-272.48583431 380.11195108 -296.39990698 359.61610484 -310.01660156 336.05810547 C-317.75741111 321.46530584 -320.93998711 304.8410699 -316.32519531 288.71826172 C-312.5193976 278.04605975 -307.55401084 268.94748516 -299.95019531 260.53076172 C-299.26376953 259.77061768 -299.26376953 259.77061768 -298.56347656 258.99511719 C-277.53645515 236.04337827 -251.17746208 226.61194044 -220.95019531 222.53076172 C-221.78679687 222.20205078 -222.62339844 221.87333984 -223.48535156 221.53466797 C-253.17062822 209.40413964 -280.6952704 187.18016323 -293.75878906 157.40576172 C-294.15195312 156.45701172 -294.54511719 155.50826172 -294.95019531 154.53076172 C-295.49353516 153.32419922 -295.49353516 153.32419922 -296.04785156 152.09326172 C-300.28214263 140.06860829 -298.8751937 126.23620686 -293.73144531 114.82763672 C-286.22572816 99.89959927 -272.78621091 87.99076201 -256.95019531 82.53076172 C-226.30233826 73.5504046 -195.58438838 77.22504938 -165.95019531 88.53076172 C-164.51740234 89.05476563 -164.51740234 89.05476563 -163.05566406 89.58935547 C-158.44624053 91.33875873 -154.06401421 93.43926328 -149.66113281 95.65576172 C-148.58911621 96.19458984 -147.51709961 96.73341797 -146.41259766 97.28857422 C-145.60000488 97.69849609 -144.78741211 98.10841797 -143.95019531 98.53076172 C-143.97114258 97.48025635 -143.99208984 96.42975098 -144.01367188 95.34741211 C-144.63405634 61.1555336 -145.26910857 22.11882571 -120.06860352 -4.42797852 C-89.51815929 -35.41747104 -31.78590374 -23.94686639 0 0 Z " fill="#F19077" transform="translate(473.9501953125,182.46923828125)"/>
</svg>
