<svg width="800" height="800" viewBox="0 0 800 800" fill="none" xmlns="http://www.w3.org/2000/svg">
<g clip-path="url(#clip0_61_5)">
<rect width="800" height="800" rx="171" fill="#FEF6E7"/>
<path d="M473.951 182.469C504.396 206.365 520.02 243.759 524.912 281.462C525.915 290.007 526.203 298.526 526.251 307.125C526.264 308.689 526.264 308.689 526.279 310.284C526.253 316.494 525.575 321.99 524.001 328C524.522 327.545 525.043 327.09 525.581 326.621C526.939 325.435 528.298 324.251 529.657 323.066C531.191 321.714 532.712 320.347 534.219 318.965C548.199 306.191 558.277 304.151 576.944 304.813C599.766 306.206 620.602 319.872 636.001 336C650.005 352.279 659.896 372.321 661.001 394C661.065 395.221 661.129 396.441 661.196 397.699C662.077 422.627 652.982 444.549 636.626 463.125C635.093 464.758 633.551 466.383 632.001 468C630.788 469.324 630.788 469.324 629.551 470.676C610.759 490.535 579.626 507.281 551.958 508.301C534.067 508.505 519.141 506.094 504.001 496C504.458 497.112 504.458 497.112 504.925 498.246C508.559 507.345 511.353 516.524 513.813 526C514.112 527.151 514.112 527.151 514.418 528.326C517.576 540.664 519.563 552.235 518.001 565C517.912 565.732 517.823 566.464 517.731 567.218C515.391 584.635 509.26 599.518 498.001 613C497.491 613.655 496.982 614.31 496.458 614.984C482.23 632.55 456.478 645.531 434.223 648.352C411.807 650.095 391.174 642.283 374.001 628C367.611 622.505 363.115 616.33 359.001 609C358.49 608.177 357.98 607.355 357.454 606.508C351.34 594.933 353.181 579.505 354.512 566.844C355.211 559.719 355.187 552.589 355.186 545.436C355.188 543.043 355.206 540.649 355.225 538.256C355.228 536.724 355.23 535.192 355.231 533.66C355.242 532.594 355.242 532.594 355.253 531.507C355.236 527.836 355.022 525.12 353.001 522C350.152 521.91 350.152 521.91 347.001 523C345.048 525.264 343.77 527.867 342.376 530.5C337.795 538.352 332.92 543.381 325.001 548C324.275 548.431 323.549 548.862 322.802 549.307C295.141 565.461 259.946 576.335 227.751 569.75C201.465 562.581 177.551 542.085 163.934 518.527C156.193 503.934 153.011 487.31 157.626 471.187C161.431 460.515 166.397 451.417 174.001 443C174.687 442.24 174.687 442.24 175.387 441.464C196.414 418.513 222.773 409.081 253.001 405C252.164 404.671 251.327 404.342 250.465 404.004C220.78 391.873 193.256 369.649 180.192 339.875C179.799 338.926 179.406 337.977 179.001 337C178.457 335.793 178.457 335.793 177.903 334.562C173.669 322.538 175.076 308.705 180.219 297.297C187.725 282.369 201.165 270.46 217.001 265C247.648 256.02 278.366 259.694 308.001 271C309.433 271.524 309.433 271.524 310.895 272.058C315.505 273.808 319.887 275.908 324.29 278.125C325.362 278.664 326.434 279.203 327.538 279.758C328.351 280.168 329.163 280.578 330.001 281C329.98 279.949 329.959 278.899 329.937 277.817C329.317 243.625 328.682 204.588 353.882 178.041C384.433 147.052 442.165 158.522 473.951 182.469Z" fill="#F19077"/>
</g>
<defs>
<clipPath id="clip0_61_5">
<rect width="800" height="800" fill="white"/>
</clipPath>
</defs>
</svg>
